<?xml version="1.0" encoding="UTF-8" standalone="no"?>
<!DOCTYPE svg PUBLIC "-//W3C//DTD SVG 1.1//EN" "http://www.w3.org/Graphics/SVG/1.1/DTD/svg11.dtd">
<svg width="300" height="120" viewBox="0 0 300 120" version="1.1" xmlns="http://www.w3.org/2000/svg" xmlns:xlink="http://www.w3.org/1999/xlink" xml:space="preserve" style="fill-rule:evenodd;clip-rule:evenodd;stroke-linejoin:round;stroke-miterlimit:2;">
  
  <!-- Loading Animation Logo -->
  
  <!-- DAT part (animated fade-in from 0% to 69% opacity) -->
  <g transform="translate(150,60) scale(0.018)" id="dat-group">
    <path d="M-3321,-350l-205.917,-0l-0,-702.75l200.291,-0c126.125,-0 259.542,24 259.542,350.625c0,326.625 -187.25,352.125 -253.917,352.125Zm367.584,-756.788c-108.334,-111.42 -189.084,-135.879 -400.667,-135.879l-391.5,0l0,1081.09l426.25,-0c180.917,-0 288.25,-45.792 376.125,-168.463c87.917,-122.625 108.333,-265.875 108.333,-372.083c0,-106.208 -10.208,-293.25 -118.541,-404.663Zm582.416,536.538l139.209,-419.375l134.541,419.375l-273.75,-0Zm269.042,-672.417l-255.875,0l-387.417,1081.09l238.625,-0l74.251,-223.671l394.458,-0l71.75,223.671l247.833,-0l-383.625,-1081.09Zm2942.81,0l-0,195.709l-2076.48,-0l0,885.379l-228.375,-0l0,-885.379l-321.416,-0l-0,-195.709l2626.27,0Z" style="fill-opacity:0;fill-rule:nonzero;">
      <!-- Fade-in animation for DAT -->
      <animateTransform attributeName="transform" attributeType="XML" type="translate" values="150,60; 150,60" dur="1s" fill="freeze"/>
      <animate attributeName="fill-opacity" values="0;0;0.69" dur="0.8s" fill="freeze"/>
    </path>
  </g>
  
  <!-- EYE part (animated slide-in from right with opacity fade) -->
  <g transform="translate(300,60) scale(0.018)" id="eye-group">
    <path d="M-219.42,-90.69l0,129.209l-556.021,-0l0,-731.046l537.021,-0l0,129.167l-384.896,-0l0,157.5l354.105,-0l-0,129.166l-354.105,0l0,186.004l403.896,0Zm1352.21,0l-0,129.209l-556.084,-0l0,-731.046l537.084,-0l-0,129.167l-384.959,-0l0,157.5l354.125,-0l0,129.166l-354.125,0l0,186.004l403.959,0Zm-641.917,-601.837l-245.417,452l0,279.046l-152.125,-0l0,-279.046l-253.041,-452l178,-0l151.083,319.083l147.375,-319.083l174.125,-0Z" style="fill:#0087ba;fill-opacity:0;">
      <!-- Slide-in and fade-in animation for EYE -->
      <animateTransform attributeName="transform" attributeType="XML" type="translate" values="300,60; 300,60; 150,60" dur="0.6s" begin="0.4s" fill="freeze"/>
      <animate attributeName="fill-opacity" values="0;0;1" dur="0.6s" begin="0.4s" fill="freeze"/>
    </path>
  </g>
  
  <!-- Subtle loading indicator dots -->
  <g transform="translate(150,95)" id="loading-dots" style="opacity:0">
    <circle cx="-8" cy="0" r="2" style="fill:#0087ba;">
      <animate attributeName="opacity" values="0.3;1;0.3" dur="0.8s" begin="1.2s" repeatCount="indefinite"/>
    </circle>
    <circle cx="0" cy="0" r="2" style="fill:#0087ba;">
      <animate attributeName="opacity" values="0.3;1;0.3" dur="0.8s" begin="1.4s" repeatCount="indefinite"/>
    </circle>
    <circle cx="8" cy="0" r="2" style="fill:#0087ba;">
      <animate attributeName="opacity" values="0.3;1;0.3" dur="0.8s" begin="1.6s" repeatCount="indefinite"/>
    </circle>
    <!-- Show dots after main animation -->
    <animate attributeName="opacity" values="0;1" dur="0.3s" begin="1.0s" fill="freeze"/>
  </g>
  
</svg>